<?xml version="1.0" encoding="UTF-8"?>
<svg xmlns="http://www.w3.org/2000/svg" id="Layer_2" data-name="Layer 2" viewBox="0 0 102.86 22.95">
  <defs>
    <style>
      .cls-1 {
        fill: #1268b3;
      }

      .cls-2 {
        fill: #faa634;
      }
    </style>
  </defs>
  <g id="Layer_1-2" data-name="Layer 1">
    <g>
      <polygon class="cls-1" points="95.11 13.79 102.86 5.7 97.11 5.7 92.2 10.84 95.11 13.79"></polygon>
      <path class="cls-1" d="M0,0h4.98v6.23c1.29-.3,2.39-.43,3.35-.43,3.18,0,5.31.66,6.5,2.12,1.16,1.49,1.56,3.31,1.56,6.12,0,5.73-2.02,8.91-10.18,8.91-1.36,0-3.45-.1-6.2-.33V0ZM4.98,20.1c.5.03.93.03,1.29.03s.63,0,.86-.03c1.82-.1,2.89-.5,3.48-1.56.6-1.03.73-2.22.73-4.44s-.2-3.58-.63-4.37c-.43-.76-1.23-1.16-2.39-1.16-.96,0-2.09.16-3.35.5v11.02Z"></path>
      <rect class="cls-1" x="18.14" width="4.95" height="22.95"></rect>
      <path class="cls-1" d="M41.17,5.73v15.5c-2.9,1.15-5.48,1.72-7.75,1.72-6.07,0-8.54-2.76-8.54-8.42V5.73h5.01v8.8c0,4.18.92,5.56,3.53,5.56.69,0,1.65-.17,2.8-.47V5.73h4.95Z"></path>
      <path class="cls-1" d="M59.25,21.82c-3.73.76-6.37,1.13-7.88,1.13-3.33,0-5.64-.86-6.89-2.49-1.25-1.59-1.75-3.48-1.75-6.14,0-6.07,3.04-8.59,8.48-8.59s8.58,2.69,8.58,8.03v1.89h-11.97c.13,3.12,1.06,4.48,3.63,4.48,1.35,0,3.79-.36,7.29-1.1l.53,2.79ZM54.73,12.86c-.13-3.28-1.12-4.35-3.53-4.35-2.28,0-3.27,1.13-3.4,4.35h6.93Z"></path>
      <polygon class="cls-1" points="63.65 14.3 66.81 11.01 66.81 0 61.86 0 61.86 22.95 66.81 22.95 66.81 17.59 63.65 14.3"></polygon>
      <polygon class="cls-2" points="79.04 5.79 73.29 5.79 65.11 14.35 73.29 22.91 79.04 22.91 70.86 14.35 79.04 5.79"></polygon>
      <polygon class="cls-2" points="80.63 5.79 86.38 5.79 94.56 14.35 86.38 22.91 80.63 22.91 88.82 14.35 80.63 5.79"></polygon>
    </g>
  </g>
</svg>
